<?xml version="1.0" standalone="no"?>
<!DOCTYPE svg PUBLIC "-//W3C//DTD SVG 20010904//EN"
 "http://www.w3.org/TR/2001/REC-SVG-20010904/DTD/svg10.dtd">
<svg version="1.0" xmlns="http://www.w3.org/2000/svg"
 width="4800.000000pt" height="2520.000000pt" viewBox="0 0 4800.000000 2520.000000"
 preserveAspectRatio="xMidYMid meet">

<g transform="translate(0.000000,2520.000000) scale(0.100000,-0.100000)"
fill="#000000" stroke="none">
<path d="M10155 17419 c-77 -78 -1170 -1144 -2430 -2369 -1259 -1225 -2338
-2277 -2397 -2336 l-108 -109 293 -291 c160 -160 1152 -1129 2202 -2154 1051
-1025 2059 -2010 2240 -2191 l330 -328 2542 2482 2543 2482 -88 85 c-1738
1690 -4410 4295 -4657 4541 l-330 329 -140 -141z m2086 -2908 c1064 -1042
1934 -1899 1934 -1906 0 -15 -3873 -3798 -3884 -3793 -20 8 -3886 3782 -3886
3793 0 17 3876 3805 3891 3802 6 -1 881 -854 1945 -1896z"/>
<path d="M10200 14723 c-184 -31 -337 -163 -396 -343 -24 -73 -24 -207 0 -277
78 -232 320 -382 555 -346 158 25 307 135 379 282 37 74 37 76 37 201 0 125 0
126 -37 202 -43 86 -138 184 -225 231 -83 45 -218 66 -313 50z"/>
<path d="M9790 12055 l0 -1475 480 0 480 0 0 1475 0 1475 -480 0 -480 0 0
-1475z"/>
<path d="M26425 14425 c-283 -46 -528 -165 -730 -356 -112 -107 -174 -191
-240 -324 -60 -121 -95 -239 -122 -415 -16 -101 -18 -188 -18 -730 0 -536 2
-630 18 -730 26 -171 61 -292 121 -415 65 -133 125 -214 238 -320 187 -178
405 -291 663 -347 134 -28 398 -35 543 -14 296 44 548 167 762 373 230 221
331 455 371 863 8 78 12 299 12 590 0 291 -4 512 -12 590 -40 410 -140 642
-375 868 -197 189 -396 295 -666 353 -127 28 -434 35 -565 14z m391 -620 c155
-29 269 -103 362 -233 113 -159 142 -358 142 -972 0 -615 -29 -813 -143 -973
-224 -313 -745 -328 -981 -27 -87 111 -124 220 -148 440 -18 162 -17 995 1
1150 26 223 64 323 164 427 160 167 370 233 603 188z"/>
<path d="M33845 14425 c-283 -46 -528 -165 -730 -356 -112 -107 -174 -191
-240 -324 -60 -121 -95 -239 -122 -415 -16 -101 -18 -188 -18 -730 0 -536 2
-630 18 -730 26 -171 61 -292 121 -415 65 -133 125 -214 238 -320 187 -178
405 -291 663 -347 134 -28 398 -35 543 -14 296 44 548 167 762 373 230 221
331 455 371 863 8 78 12 299 12 590 0 291 -4 512 -12 590 -40 407 -141 643
-371 863 -194 187 -410 302 -672 359 -125 27 -433 34 -563 13z m438 -629 c172
-47 314 -165 382 -321 60 -134 85 -376 85 -815 0 -616 -37 -867 -150 -1028
-223 -318 -746 -335 -984 -32 -87 111 -124 220 -148 440 -18 162 -17 995 1
1150 26 223 64 323 164 427 100 105 198 159 337 189 79 16 232 12 313 -10z"/>
<path d="M17170 12600 l0 -1810 365 0 365 0 0 1810 0 1810 -365 0 -365 0 0
-1810z"/>
<path d="M18760 12600 l0 -1810 360 0 360 0 0 1106 c0 608 3 1103 8 1100 4 -2
334 -500 732 -1105 l725 -1101 328 0 327 0 0 1810 0 1810 -365 0 -365 0 -2
-1103 -3 -1104 -730 1101 -731 1101 -322 3 -322 2 0 -1810z"/>
<path d="M22460 12600 l0 -1810 360 0 360 0 2 733 3 732 728 3 727 2 0 315 0
315 -727 2 -728 3 0 440 0 440 858 3 857 2 0 315 0 315 -1220 0 -1220 0 0
-1810z"/>
<path d="M29840 14095 l0 -315 756 -2 755 -3 -790 -1210 -791 -1210 0 -282 0
-283 1215 0 1215 0 0 310 0 310 -790 0 c-434 0 -790 2 -790 5 0 4 356 551 790
1217 l790 1212 0 283 0 283 -1180 0 -1180 0 0 -315z"/>
<path d="M36200 12600 l0 -1810 365 0 365 0 2 1102 3 1102 730 -1101 730
-1102 323 0 322 -1 0 1810 0 1810 -365 0 -365 0 -2 -1102 -3 -1102 -730 1102
-730 1101 -322 1 -323 0 0 -1810z"/>
<path d="M40845 14398 c-3 -7 -306 -820 -675 -1806 -368 -987 -670 -1795 -670
-1798 0 -2 170 -4 378 -4 l377 0 110 320 110 320 664 -2 664 -3 110 -317 110
-318 379 0 378 0 -13 33 c-7 17 -314 832 -682 1810 l-670 1777 -283 0 c-217 0
-284 -3 -287 -12z m538 -1720 l224 -648 -463 0 -464 0 33 93 c18 50 123 345
233 654 109 309 202 559 206 555 3 -4 107 -298 231 -654z"/>
</g>
</svg>
